<svg width="119.7" height="66.501" viewBox="0 0 119.7 66.501" xmlns="http://www.w3.org/2000/svg"><g id="svgGroup" stroke-linecap="round" fill-rule="evenodd" font-size="9pt" stroke="#ffffff" stroke-width="0.25mm" fill="#ffffff" style="stroke:#ffffff;stroke-width:0.25mm;fill:#ffffff"><path d="M 69.35 66.501 L 69.35 0.001 L 79.8 0.001 L 79.8 27.076 L 91.01 27.076 L 91.01 0.001 L 101.46 0.001 L 101.46 66.501 L 91.01 66.501 L 91.01 36.576 L 79.8 36.576 L 79.8 66.501 L 69.35 66.501 Z M 36.67 66.501 L 36.67 0.001 L 64.315 0.001 L 64.315 9.501 L 47.12 9.501 L 47.12 28.026 L 60.61 28.026 L 60.61 37.526 L 47.12 37.526 L 47.12 66.501 L 36.67 66.501 Z M 0 66.501 L 0 0.001 L 15.39 0.001 Q 20.834 0.001 24.375 2.042 A 11.544 11.544 0 0 1 27.075 4.181 Q 30.29 7.631 30.851 13.735 A 29.516 29.516 0 0 1 30.97 16.436 L 30.97 22.991 A 26.746 26.746 0 0 1 30.59 27.657 Q 29.753 32.372 27.075 35.246 A 12.284 12.284 0 0 1 21.65 38.567 Q 19.688 39.184 17.312 39.358 A 26.399 26.399 0 0 1 15.39 39.426 L 10.45 39.426 L 10.45 66.501 L 0 66.501 Z M 109.25 66.501 L 109.25 0.001 L 119.7 0.001 L 119.7 66.501 L 109.25 66.501 Z M 10.45 29.926 L 15.39 29.926 A 7.339 7.339 0 0 0 16.868 29.786 Q 17.746 29.606 18.412 29.191 A 3.819 3.819 0 0 0 19.238 28.501 Q 20.52 27.076 20.52 23.656 L 20.52 15.771 A 14.372 14.372 0 0 0 20.43 14.094 Q 20.226 12.366 19.563 11.351 A 3.469 3.469 0 0 0 19.237 10.926 A 4.055 4.055 0 0 0 17.358 9.764 Q 16.708 9.566 15.926 9.517 A 8.523 8.523 0 0 0 15.39 9.501 L 10.45 9.501 L 10.45 29.926 Z" vector-effect="non-scaling-stroke"/></g></svg>